<?xml version="1.0" standalone="no"?>
<!DOCTYPE svg PUBLIC "-//W3C//DTD SVG 20010904//EN"
 "http://www.w3.org/TR/2001/REC-SVG-20010904/DTD/svg10.dtd">
<svg version="1.0" xmlns="http://www.w3.org/2000/svg"
 width="121.000000pt" height="70.000000pt" viewBox="0 0 121.000000 70.000000"
 preserveAspectRatio="xMidYMid meet">
<metadata>
Created by potrace 1.16, written by Peter Selinger 2001-2019
</metadata>
<g transform="translate(0.000000,70.000000) scale(0.100000,-0.100000)"
fill="#fff" stroke="#000">
<path d="M0 350 l0 -350 605 0 605 0 0 350 0 350 -605 0 -605 0 0 -350z m944
276 c14 -25 26 -56 26 -70 0 -19 5 -26 20 -26 13 0 20 -7 20 -20 0 -11 7 -20
15 -20 10 0 15 -10 15 -30 l0 -30 69 0 c39 0 73 -4 76 -10 4 -6 -22 -10 -69
-10 -74 0 -76 -1 -76 -25 0 -20 -5 -25 -25 -25 -21 0 -25 5 -25 30 0 18 6 33
15 36 8 4 15 12 15 19 0 7 -7 15 -15 19 -8 3 -15 15 -15 26 0 11 -7 20 -15 20
-10 0 -15 10 -15 33 0 17 -11 50 -25 71 l-24 39 -20 -34 c-12 -19 -21 -50 -21
-70 0 -28 -5 -38 -20 -42 -12 -3 -20 -14 -20 -26 0 -12 -4 -21 -10 -21 -6 0
-10 -75 -10 -205 l0 -205 40 0 c29 0 40 -4 40 -16 0 -12 -10 -14 -52 -12 l-53
3 -3 228 c-2 196 0 228 13 233 8 4 15 15 15 25 0 12 7 19 20 19 15 0 20 7 20
26 0 26 48 114 62 114 3 0 18 -20 32 -44z m-407 -332 c3 -8 -19 -62 -51 -125
-63 -119 -62 -127 10 -116 29 5 35 3 32 -11 -3 -13 -16 -18 -66 -20 -88 -4
-89 7 -19 140 31 58 57 109 57 112 0 3 -22 6 -50 6 -46 0 -60 7 -43 23 3 4 33
7 65 7 44 0 60 -4 65 -16z m193 -93 c0 -143 -18 -181 -87 -181 -60 0 -73 30
-73 169 0 67 4 111 10 111 6 0 10 -39 10 -97 0 -111 12 -146 51 -151 49 -6 59
18 59 137 0 59 3 111 6 114 17 17 24 -12 24 -102z m-403 -16 c45 -151 48 -168
32 -163 -7 2 -18 20 -24 39 -11 31 -15 34 -58 37 l-46 3 -11 -40 c-11 -40 -30
-56 -30 -25 0 9 17 72 37 140 47 158 56 159 100 9z"/>
</g>
</svg>
